<svg width="32" height="32" viewBox="0 0 32 32" fill="none" xmlns="http://www.w3.org/2000/svg">
<path d="M7.60226 28.0419H11.7829L16.1198 28.0439C18.2104 28.0443 19.5229 28.1347 21.489 27.2929C22.913 26.6831 23.8471 26.2152 25.0534 25.1757C25.9148 24.4334 26.5657 23.7716 27.2097 22.8222C28.2424 21.3423 29.0936 19.4997 29.4411 17.7245C29.6402 16.7249 29.5765 15.6983 29.6179 14.7021C29.7053 12.6 29.3917 10.8557 28.365 8.996C27.7135 7.81619 26.6193 6.47644 25.4987 5.6835C24.2139 4.79141 22.8213 4.1836 21.2497 4.04385C20.6182 3.98771 19.9476 4.00473 19.3103 4.00479L16.4021 4.0087L13.4001 4.00381C12.4424 4.00201 11.4551 3.97027 10.5144 4.15811C9.31353 4.3979 7.78616 5.07603 6.84152 5.84756C4.87728 7.452 3.26065 9.93148 3.06418 12.4989C2.98581 13.523 3.01189 14.7481 3.01242 15.7997L3.02023 21.12L3.02316 24.1923C3.01991 25.2444 2.83156 26.3308 3.58664 27.1679C4.12462 27.7642 4.59912 27.9636 5.39035 28.0302C5.92922 28.0771 7.02148 28.0423 7.60226 28.0419ZM20.2448 18.8759C18.8587 18.8191 17.7807 17.6488 17.8376 16.2626C17.8947 14.8766 19.0649 13.7993 20.4509 13.8564C21.8365 13.9136 22.9139 15.083 22.8571 16.4687C22.8002 17.8545 21.6306 18.9325 20.2448 18.8759ZM11.4109 18.8407C10.0378 18.7447 9.00175 17.5548 9.09543 16.1815C9.18911 14.8083 10.3773 13.7699 11.7507 13.8612C13.1273 13.9529 14.1678 15.1449 14.0739 16.5214C13.9799 17.8978 12.7872 18.9369 11.4109 18.8407Z" fill="black"/>
</svg>
